# xmcd
#
# Track frame offsets:
#	150
#	17547
#	34402
#	48298
#	66156
#	82080
#	94311
#	109612
#	124858
#	142149
#	156413
#	172131
#	185968
#
# Disc length: 2760 seconds
#
# Revision: 0
# Processed by: cddbd v1.5.1PL0 Copyright (c) Steve Scherf et al.
# Submitted via: dBpowerAMP V4.0
#
DISCID=c20ac60d
DTITLE=Dierks Bentley - Dierks Bentley
DYEAR=1900
DGENRE=Country
TTITLE0=What Was I Thinkin'
TTITLE1=Wish It Would Break
TTITLE2=Forget About You
TTITLE3=I Can Only Think Of One
TTITLE4=My Last Name
TTITLE5=Bartenders, etc...
TTITLE6=Is Anybody Loving You These Days
TTITLE7=My Love Will Follow
TTITLE8=How'm I Doin
TTITLE9=Distant Shore
TTITLE10=I Bought The Shoes
TTITLE11=Whiskey Tears
TTITLE12=Train Traveling
EXTD=
EXTT0=
EXTT1=
EXTT2=
EXTT3=
EXTT4=
EXTT5=
EXTT6=
EXTT7=
EXTT8=
EXTT9=
EXTT10=
EXTT11=
EXTT12=
PLAYORDER=
